<?xml version="1.0" encoding="utf-8"?>
<!-- Generator: Adobe Illustrator 16.0.3, SVG Export Plug-In . SVG Version: 6.00 Build 0)  -->
<!DOCTYPE svg PUBLIC "-//W3C//DTD SVG 1.1//EN" "http://www.w3.org/Graphics/SVG/1.1/DTD/svg11.dtd">
<svg version="1.1" id="Layer_1" xmlns="http://www.w3.org/2000/svg" xmlns:xlink="http://www.w3.org/1999/xlink" x="0px" y="0px"
	 width="168.151px" height="92.392px" viewBox="0 0 168.151 92.392" enable-background="new 0 0 168.151 92.392"
	 xml:space="preserve">
<g>
	<path fill="#804B1F" d="M168.15,42.888h-65.275l0.537-0.721c3.357-4.498,5.131-9.865,5.131-15.521
		c0-14.198-11.391-25.748-25.385-25.748c-13.998,0-25.38,11.55-25.38,25.748c0,5.655,1.771,11.023,5.126,15.521l0.537,0.721H0.002
		v-0.9H61.68c-3.138-4.503-4.79-9.789-4.79-15.342C56.89,11.953,68.676,0,83.158,0c14.484,0,26.268,11.953,26.268,26.646
		c0,5.554-1.652,10.84-4.787,15.342h63.512V42.888z"/>
	<rect y="67.187" fill="#804B1F" width="59.374" height="0.896"/>
	<rect x="106.945" y="67.187" fill="#804B1F" width="61.205" height="0.896"/>
	<path fill="#492918" d="M68.434,66.889c0.035,0,0.07-0.024,0.07-0.084v-0.256c0-1.842,0-2.183-0.025-2.569
		c-0.021-0.412-0.115-0.607-0.512-0.691c-0.096-0.024-0.299-0.035-0.467-0.035c-0.131,0-0.203-0.026-0.203-0.108
		c0-0.086,0.086-0.11,0.254-0.11c0.643,0,1.395,0.037,1.721,0.037c0.287,0,1.037-0.037,1.504-0.037c0.168,0,0.252,0.024,0.252,0.11
		c0,0.082-0.072,0.108-0.217,0.108c-0.096,0-0.201,0.011-0.344,0.035c-0.324,0.061-0.42,0.268-0.443,0.691
		c-0.025,0.387-0.025,0.728-0.025,2.569v2.134c0,1.115,0,2.076,0.061,2.596c0.035,0.34,0.107,0.607,0.465,0.655
		c0.168,0.022,0.432,0.048,0.609,0.048c0.133,0,0.189,0.037,0.189,0.098c0,0.086-0.092,0.12-0.234,0.12
		c-0.779,0-1.529-0.034-1.865-0.034c-0.277,0-1.029,0.034-1.494,0.034c-0.166,0-0.25-0.034-0.25-0.12
		c0-0.061,0.049-0.098,0.189-0.098c0.178,0,0.322-0.025,0.43-0.048c0.238-0.048,0.301-0.315,0.35-0.665
		c0.057-0.51,0.057-1.471,0.057-2.586v-1.065c0-0.048-0.035-0.073-0.07-0.073h-4.568c-0.035,0-0.068,0.012-0.068,0.073v1.065
		c0,1.115,0,2.076,0.057,2.596c0.039,0.34,0.109,0.607,0.469,0.655c0.166,0.022,0.43,0.048,0.609,0.048
		c0.129,0,0.191,0.037,0.191,0.098c0,0.086-0.098,0.12-0.24,0.12c-0.775,0-1.531-0.034-1.863-0.034
		c-0.279,0-1.031,0.034-1.508,0.034c-0.156,0-0.24-0.034-0.24-0.12c0-0.061,0.049-0.098,0.193-0.098c0.176,0,0.322-0.025,0.43-0.048
		c0.238-0.048,0.299-0.315,0.346-0.665c0.061-0.51,0.061-1.471,0.061-2.586v-2.134c0-1.842,0-2.183-0.025-2.569
		c-0.023-0.412-0.119-0.607-0.512-0.691c-0.098-0.024-0.299-0.035-0.469-0.035c-0.13,0-0.201-0.026-0.201-0.108
		c0-0.086,0.08-0.11,0.25-0.11c0.645,0,1.396,0.037,1.721,0.037c0.287,0,1.043-0.037,1.508-0.037c0.168,0,0.25,0.024,0.25,0.11
		c0,0.082-0.07,0.108-0.215,0.108c-0.096,0-0.205,0.011-0.348,0.035c-0.32,0.061-0.418,0.268-0.441,0.691
		c-0.021,0.387-0.021,0.728-0.021,2.569v0.256c0,0.06,0.033,0.084,0.068,0.084H68.434z"/>
	<path fill="#492918" d="M72.498,67.618c0-2.073,1.35-4.753,4.936-4.753c2.977,0,4.828,1.757,4.828,4.533
		c0,2.779-1.912,4.971-4.947,4.971C73.885,72.369,72.498,69.763,72.498,67.618 M80.588,67.847c0-2.715-1.541-4.402-3.504-4.402
		c-1.373,0-2.938,0.777-2.938,3.797c0,2.521,1.375,4.521,3.67,4.521C78.652,71.762,80.588,71.351,80.588,67.847"/>
	<path fill="#492918" d="M86.254,63.712l-1.779,0.049c-0.695,0.024-0.982,0.084-1.162,0.352c-0.115,0.182-0.176,0.329-0.201,0.424
		c-0.023,0.097-0.061,0.146-0.131,0.146c-0.086,0-0.109-0.062-0.109-0.193c0-0.195,0.229-1.297,0.252-1.396
		c0.035-0.157,0.074-0.229,0.143-0.229c0.098,0,0.217,0.121,0.514,0.145c0.35,0.035,0.801,0.061,1.197,0.061h4.732
		c0.383,0,0.646-0.035,0.824-0.061c0.18-0.035,0.275-0.061,0.324-0.061c0.084,0,0.092,0.072,0.092,0.255
		c0,0.255-0.033,1.091-0.033,1.405c-0.014,0.123-0.033,0.197-0.107,0.197c-0.096,0-0.117-0.062-0.133-0.244l-0.01-0.135
		c-0.023-0.314-0.346-0.653-1.41-0.678l-1.51-0.037v4.972c0,1.114,0,2.074,0.063,2.595c0.035,0.339,0.107,0.607,0.469,0.655
		c0.164,0.022,0.428,0.05,0.605,0.05c0.135,0,0.189,0.037,0.189,0.096c0,0.084-0.09,0.121-0.225,0.121
		c-0.789,0-1.545-0.037-1.875-0.037c-0.277,0-1.027,0.037-1.508,0.037c-0.156,0-0.236-0.037-0.236-0.121
		c0-0.059,0.045-0.096,0.191-0.096c0.178,0,0.32-0.027,0.428-0.05c0.242-0.048,0.313-0.316,0.348-0.667
		c0.059-0.509,0.059-1.469,0.059-2.583V63.712z"/>
	<path fill="#492918" d="M93.152,66.549c0-1.843,0-2.183-0.025-2.571c-0.023-0.41-0.119-0.605-0.514-0.688
		c-0.098-0.025-0.297-0.037-0.467-0.037c-0.131,0-0.201-0.025-0.201-0.107c0-0.086,0.086-0.11,0.262-0.11
		c0.322,0,0.668,0.01,0.969,0.01c0.309,0.015,0.584,0.025,0.75,0.025c0.385,0,2.766,0,2.99-0.011
		c0.227-0.024,0.418-0.05,0.516-0.073c0.059-0.013,0.131-0.049,0.191-0.049c0.059,0,0.068,0.049,0.068,0.107
		c0,0.088-0.059,0.232-0.094,0.789c-0.012,0.121-0.035,0.656-0.061,0.8c-0.01,0.062-0.035,0.136-0.117,0.136
		c-0.086,0-0.109-0.063-0.109-0.171c0-0.085-0.01-0.291-0.068-0.437c-0.086-0.218-0.205-0.364-0.803-0.437
		c-0.203-0.024-1.459-0.048-1.699-0.048c-0.059,0-0.08,0.035-0.08,0.12v3.067c0,0.086,0.008,0.134,0.08,0.134
		c0.262,0,1.641,0,1.914-0.024c0.287-0.023,0.465-0.061,0.572-0.182c0.084-0.098,0.133-0.156,0.193-0.156
		c0.047,0,0.082,0.021,0.082,0.096c0,0.073-0.051,0.267-0.096,0.886c-0.012,0.242-0.047,0.726-0.047,0.812
		c0,0.098,0,0.231-0.107,0.231c-0.086,0-0.109-0.049-0.109-0.11c-0.012-0.121-0.012-0.279-0.049-0.436
		c-0.057-0.243-0.227-0.424-0.668-0.475c-0.227-0.022-1.412-0.035-1.697-0.035c-0.061,0-0.068,0.049-0.068,0.12v0.959
		c0,0.413-0.016,1.527,0,1.882c0.021,0.834,0.211,1.015,1.432,1.015c0.309,0,0.811,0,1.125-0.145
		c0.311-0.147,0.451-0.399,0.535-0.896c0.025-0.136,0.049-0.184,0.131-0.184c0.098,0,0.098,0.098,0.098,0.219
		c0,0.279-0.098,1.104-0.154,1.346c-0.084,0.314-0.193,0.314-0.648,0.314c-0.895,0-1.553-0.023-2.066-0.036
		c-0.514-0.023-0.885-0.036-1.244-0.036c-0.133,0-0.393,0-0.682,0.013c-0.275,0-0.584,0.023-0.822,0.023
		c-0.156,0-0.238-0.036-0.238-0.12c0-0.061,0.045-0.098,0.191-0.098c0.176,0,0.32-0.025,0.43-0.048
		c0.236-0.048,0.297-0.316,0.346-0.667c0.061-0.509,0.061-1.469,0.061-2.583V66.549z"/>
	<path fill="#492918" d="M102.199,68.684c0,1.552,0,2.389,0.252,2.604c0.201,0.185,0.514,0.27,1.447,0.27
		c0.635,0,1.1-0.014,1.396-0.34c0.143-0.158,0.289-0.497,0.311-0.728c0.014-0.108,0.035-0.181,0.133-0.181
		c0.084,0,0.096,0.06,0.096,0.205c0,0.135-0.082,1.043-0.178,1.395c-0.072,0.266-0.133,0.326-0.756,0.326
		c-0.859,0-1.48-0.023-2.02-0.035c-0.539-0.025-0.967-0.037-1.457-0.037c-0.133,0-0.396,0-0.684,0.012
		c-0.273,0-0.584,0.025-0.822,0.025c-0.156,0-0.242-0.037-0.242-0.121c0-0.059,0.049-0.096,0.193-0.096
		c0.178,0,0.32-0.027,0.43-0.05c0.238-0.048,0.299-0.316,0.346-0.667c0.061-0.509,0.061-1.469,0.061-2.583v-2.135
		c0-1.843,0-2.183-0.023-2.57c-0.023-0.411-0.117-0.606-0.514-0.689c-0.092-0.025-0.238-0.037-0.396-0.037
		c-0.133,0-0.205-0.025-0.205-0.107c0-0.087,0.088-0.11,0.264-0.11c0.564,0,1.318,0.035,1.641,0.035c0.287,0,1.16-0.035,1.627-0.035
		c0.164,0,0.248,0.023,0.248,0.11c0,0.082-0.068,0.107-0.213,0.107c-0.131,0-0.324,0.012-0.467,0.037
		c-0.324,0.06-0.42,0.265-0.443,0.689c-0.023,0.388-0.023,0.728-0.023,2.57V68.684z"/>
	<path fill="#492918" d="M6.068,47.708l-2.441,0.066c-0.949,0.033-1.342,0.115-1.588,0.481c-0.162,0.249-0.244,0.448-0.277,0.581
		c-0.031,0.133-0.084,0.201-0.184,0.201c-0.111,0-0.143-0.084-0.143-0.268c0-0.266,0.309-1.777,0.342-1.909
		c0.047-0.216,0.1-0.317,0.195-0.317c0.133,0,0.295,0.166,0.705,0.201c0.479,0.048,1.098,0.082,1.637,0.082H10.8
		c0.525,0,0.887-0.051,1.133-0.082c0.242-0.051,0.375-0.084,0.438-0.084c0.119,0,0.131,0.1,0.131,0.349
		c0,0.351-0.047,1.495-0.047,1.927c-0.014,0.168-0.047,0.267-0.146,0.267c-0.133,0-0.164-0.084-0.18-0.331l-0.016-0.185
		c-0.033-0.432-0.477-0.896-1.934-0.93l-2.064-0.05v6.811c0,1.529,0,2.842,0.082,3.557c0.051,0.465,0.148,0.829,0.638,0.896
		c0.229,0.033,0.588,0.066,0.838,0.066c0.178,0,0.26,0.051,0.26,0.132c0,0.114-0.133,0.167-0.309,0.167
		c-1.083,0-2.117-0.053-2.576-0.053c-0.373,0-1.404,0.053-2.063,0.053c-0.213,0-0.324-0.053-0.324-0.167
		c0-0.081,0.064-0.132,0.26-0.132c0.246,0,0.441-0.033,0.59-0.066c0.326-0.067,0.424-0.432,0.475-0.914
		c0.082-0.697,0.082-2.01,0.082-3.539V47.708z"/>
	<path fill="#492918" d="M22.657,53.257c0.035,0,0.084-0.017,0.084-0.1v-0.301c0-2.141-0.02-2.658-0.035-3.105
		c-0.029-0.48-0.162-0.632-0.621-0.763c-0.113-0.034-0.359-0.052-0.556-0.052c-0.164,0-0.246-0.051-0.246-0.148
		c0-0.101,0.098-0.134,0.313-0.134c0.769,0,1.785,0.033,2.162,0.033c0.342,0,1.293-0.033,1.85-0.033
		c0.211,0,0.311,0.033,0.311,0.134c0,0.098-0.1,0.148-0.26,0.148c-0.115,0-0.248,0.018-0.426,0.052
		c-0.377,0.065-0.492,0.265-0.523,0.763c-0.035,0.447-0.035,0.848-0.035,2.99v2.492c0,1.295,0,2.408,0.066,3.021
		c0.049,0.401,0.131,0.667,0.574,0.732c0.193,0.035,0.504,0.051,0.734,0.051c0.148,0,0.23,0.082,0.23,0.148
		c0,0.098-0.115,0.151-0.297,0.151c-0.932,0-1.883-0.054-2.275-0.054c-0.326,0-1.342,0.054-1.898,0.054
		c-0.197,0-0.312-0.054-0.312-0.151c0-0.066,0.066-0.148,0.23-0.148c0.229,0,0.393-0.016,0.521-0.051
		c0.297-0.065,0.377-0.331,0.43-0.746c0.064-0.6,0.064-1.68,0.064-2.975v-1.08c0-0.051-0.049-0.084-0.084-0.084h-5.435
		c-0.049,0-0.1,0.018-0.1,0.084v1.08c0,1.295,0.018,2.375,0.08,2.988c0.053,0.401,0.133,0.667,0.557,0.732
		c0.197,0.035,0.525,0.051,0.74,0.051c0.162,0,0.229,0.082,0.229,0.148c0,0.098-0.115,0.151-0.295,0.151
		c-0.932,0-1.934-0.054-2.342-0.054c-0.328,0-1.275,0.054-1.852,0.054c-0.18,0-0.279-0.054-0.279-0.151
		c0-0.066,0.051-0.148,0.23-0.148c0.213,0,0.375-0.016,0.508-0.051c0.295-0.065,0.377-0.331,0.426-0.746
		c0.068-0.6,0.068-1.713,0.068-3.008v-2.492c0-2.143,0-2.543-0.018-2.99c-0.033-0.48-0.164-0.632-0.623-0.763
		c-0.113-0.034-0.361-0.052-0.574-0.052c-0.146,0-0.244-0.051-0.244-0.148c0-0.101,0.113-0.134,0.311-0.134
		c0.771,0,1.719,0.033,2.109,0.033c0.346,0,1.348-0.033,1.918-0.033c0.199,0,0.297,0.033,0.297,0.134
		c0,0.098-0.084,0.148-0.264,0.148c-0.113,0-0.244,0.018-0.408,0.052c-0.395,0.065-0.508,0.265-0.541,0.763
		c-0.033,0.447-0.033,0.965-0.033,3.105v0.301c0,0.083,0.051,0.1,0.1,0.1H22.657z"/>
	<path fill="#492918" d="M29.39,52.742c0-2.143,0-2.543-0.018-2.99c-0.033-0.48-0.162-0.632-0.621-0.763
		c-0.115-0.034-0.361-0.052-0.572-0.052c-0.146,0-0.248-0.051-0.248-0.148c0-0.101,0.115-0.134,0.33-0.134
		c0.752,0,1.67,0.033,2.078,0.033c0.457,0,3.652,0.017,3.933,0c0.26-0.017,0.488-0.067,0.602-0.082
		c0.084-0.017,0.166-0.067,0.232-0.067c0.082,0,0.098,0.067,0.098,0.133c0,0.1-0.084,0.266-0.113,0.913
		c-0.018,0.151-0.051,0.765-0.084,0.933c-0.016,0.066-0.049,0.231-0.16,0.231c-0.1,0-0.119-0.065-0.119-0.183
		c0-0.101-0.016-0.35-0.098-0.515c-0.113-0.249-0.229-0.448-0.949-0.516c-0.244-0.033-1.964-0.066-2.259-0.066
		c-0.066,0-0.098,0.05-0.098,0.134v3.486c0,0.084,0.016,0.151,0.098,0.151c0.33,0,2.193,0,2.521-0.034
		c0.346-0.033,0.541-0.082,0.688-0.215c0.117-0.102,0.164-0.186,0.23-0.186s0.115,0.068,0.115,0.151s-0.033,0.315-0.115,1.029
		c-0.033,0.284-0.066,0.848-0.066,0.948c0,0.115-0.016,0.314-0.143,0.314c-0.102,0-0.135-0.051-0.135-0.117
		c-0.016-0.148-0.016-0.329-0.049-0.514c-0.082-0.282-0.262-0.498-0.803-0.547c-0.264-0.033-1.9-0.066-2.259-0.066
		c-0.066,0-0.082,0.066-0.082,0.148v1.13c0,0.482-0.018,1.679,0,2.093c0.031,0.963,0.473,1.18,1.945,1.18
		c0.381,0,0.986-0.018,1.361-0.182c0.361-0.168,0.523-0.467,0.625-1.047c0.033-0.149,0.064-0.217,0.16-0.217
		c0.115,0,0.133,0.181,0.133,0.332c0,0.314-0.115,1.279-0.197,1.563c-0.096,0.365-0.23,0.365-0.768,0.365
		c-1.082,0-1.951-0.016-2.654-0.051c-0.703-0.016-1.246-0.035-1.672-0.035c-0.162,0-0.473,0.02-0.818,0.02
		c-0.342,0.016-0.703,0.034-0.998,0.034c-0.18,0-0.277-0.054-0.277-0.151c0-0.066,0.045-0.148,0.227-0.148
		c0.215,0,0.379-0.016,0.508-0.051c0.295-0.065,0.377-0.331,0.428-0.746c0.064-0.6,0.064-1.713,0.064-3.008V52.742z"/>
	<path fill="#492918" d="M42.607,48.406c-0.195-0.614-0.377-1.013-0.606-1.178c-0.182-0.117-0.506-0.152-0.658-0.152
		c-0.16,0-0.258-0.016-0.258-0.148c0-0.115,0.131-0.15,0.359-0.15c0.852,0,1.752,0.051,1.899,0.051c0.148,0,0.869-0.051,1.818-0.051
		c0.232,0,0.344,0.051,0.344,0.15c0,0.133-0.133,0.148-0.295,0.148c-0.133,0-0.295,0-0.408,0.066
		c-0.148,0.068-0.18,0.186-0.18,0.367c0,0.216,0.164,0.781,0.359,1.529c0.277,1.097,1.802,6.129,2.095,7.059h0.051l3.176-8.672
		c0.164-0.464,0.279-0.598,0.412-0.598c0.18,0,0.26,0.248,0.475,0.781l3.406,8.372h0.049c0.293-1.112,1.604-5.497,2.178-7.442
		c0.113-0.381,0.164-0.73,0.164-0.964c0-0.266-0.148-0.499-0.785-0.499c-0.166,0-0.279-0.048-0.279-0.148
		c0-0.115,0.131-0.15,0.375-0.15c0.869,0,1.557,0.051,1.705,0.051c0.113,0,0.818-0.051,1.359-0.051c0.18,0,0.295,0.035,0.295,0.133
		c0,0.118-0.082,0.166-0.23,0.166c-0.164,0-0.391,0.018-0.572,0.084c-0.391,0.149-0.572,0.814-0.916,1.762
		c-0.754,2.094-2.475,7.375-3.277,9.867c-0.182,0.581-0.262,0.781-0.477,0.781c-0.162,0-0.262-0.2-0.506-0.815l-3.406-8.339h-0.033
		c-0.311,0.848-2.49,6.745-3.195,8.273c-0.309,0.681-0.393,0.881-0.588,0.881c-0.162,0-0.229-0.184-0.377-0.615L42.607,48.406z"/>
	<path fill="#492918" d="M68.975,53.257c0.033,0,0.082-0.017,0.082-0.1v-0.301c0-2.141-0.018-2.658-0.031-3.105
		c-0.033-0.48-0.168-0.632-0.623-0.763c-0.113-0.034-0.363-0.052-0.559-0.052c-0.162,0-0.242-0.051-0.242-0.148
		c0-0.101,0.096-0.134,0.309-0.134c0.77,0,1.783,0.033,2.162,0.033c0.344,0,1.291-0.033,1.852-0.033
		c0.213,0,0.309,0.033,0.309,0.134c0,0.098-0.096,0.148-0.258,0.148c-0.117,0-0.248,0.018-0.43,0.052
		c-0.375,0.065-0.488,0.265-0.523,0.763c-0.033,0.447-0.033,0.848-0.033,2.99v2.492c0,1.295,0,2.408,0.068,3.021
		c0.047,0.401,0.131,0.667,0.572,0.732c0.195,0.035,0.508,0.051,0.734,0.051c0.148,0,0.23,0.082,0.23,0.148
		c0,0.098-0.113,0.151-0.293,0.151c-0.938,0-1.885-0.054-2.277-0.054c-0.33,0-1.344,0.054-1.9,0.054
		c-0.199,0-0.311-0.054-0.311-0.151c0-0.066,0.064-0.148,0.227-0.148c0.234,0,0.396-0.016,0.529-0.051
		c0.289-0.065,0.371-0.331,0.424-0.746c0.064-0.6,0.064-1.68,0.064-2.975v-1.08c0-0.051-0.049-0.084-0.082-0.084h-5.438
		c-0.049,0-0.098,0.018-0.098,0.084v1.08c0,1.295,0.016,2.375,0.082,2.988c0.049,0.401,0.131,0.667,0.555,0.732
		c0.199,0.035,0.525,0.051,0.738,0.051c0.162,0,0.229,0.082,0.229,0.148c0,0.098-0.113,0.151-0.291,0.151
		c-0.936,0-1.934-0.054-2.344-0.054c-0.326,0-1.277,0.054-1.851,0.054c-0.18,0-0.279-0.054-0.279-0.151
		c0-0.066,0.051-0.148,0.23-0.148c0.212,0,0.378-0.016,0.505-0.051c0.294-0.065,0.376-0.331,0.427-0.746
		c0.066-0.6,0.066-1.713,0.066-3.008v-2.492c0-2.143,0-2.543-0.018-2.99c-0.029-0.48-0.162-0.632-0.623-0.763
		c-0.115-0.034-0.359-0.052-0.572-0.052c-0.148,0-0.244-0.051-0.244-0.148c0-0.101,0.113-0.134,0.309-0.134
		c0.771,0,1.722,0.033,2.112,0.033c0.346,0,1.344-0.033,1.916-0.033c0.197,0,0.297,0.033,0.297,0.134
		c0,0.098-0.084,0.148-0.264,0.148c-0.115,0-0.244,0.018-0.408,0.052c-0.393,0.065-0.51,0.265-0.541,0.763
		c-0.033,0.447-0.033,0.965-0.033,3.105v0.301c0,0.083,0.049,0.1,0.098,0.1H68.975z"/>
	<path fill="#492918" d="M75.707,52.742c0-2.143,0-2.543-0.018-2.99c-0.033-0.48-0.18-0.646-0.49-0.746
		c-0.166-0.051-0.346-0.068-0.523-0.068c-0.146,0-0.23-0.033-0.23-0.166c0-0.083,0.115-0.116,0.344-0.116
		c0.541,0,1.523,0.033,1.932,0.033c0.361,0,1.295-0.033,1.852-0.033c0.178,0,0.295,0.033,0.295,0.116c0,0.133-0.08,0.166-0.23,0.166
		c-0.146,0-0.26,0.018-0.426,0.052c-0.393,0.065-0.508,0.265-0.539,0.763c-0.037,0.447-0.037,0.848-0.037,2.99v2.492
		c0,1.361,0,2.492,0.068,3.09c0.053,0.381,0.148,0.599,0.572,0.664c0.199,0.035,0.525,0.051,0.738,0.051
		c0.164,0,0.23,0.082,0.23,0.148c0,0.098-0.115,0.151-0.277,0.151c-0.951,0-1.934-0.054-2.326-0.054
		c-0.328,0-1.311,0.054-1.885,0.054c-0.178,0-0.275-0.054-0.275-0.151c0-0.066,0.049-0.148,0.227-0.148
		c0.211,0,0.377-0.016,0.51-0.051c0.293-0.065,0.375-0.266,0.424-0.68c0.066-0.582,0.066-1.713,0.066-3.074V52.742z"/>
	<path fill="#492918" d="M84.289,49.519l-2.146,0.05c-0.836,0.017-1.178,0.116-1.391,0.433c-0.148,0.197-0.213,0.381-0.248,0.482
		c-0.031,0.115-0.064,0.182-0.162,0.182c-0.1,0-0.129-0.084-0.129-0.234c0-0.232,0.277-1.594,0.309-1.711
		c0.033-0.182,0.082-0.264,0.164-0.264c0.113,0,0.26,0.115,0.621,0.166c0.426,0.049,0.969,0.065,1.441,0.065h5.846
		c0.459,0,0.771-0.033,0.986-0.065c0.229-0.033,0.346-0.067,0.391-0.067c0.1,0,0.117,0.083,0.117,0.299
		c0,0.301-0.033,1.345-0.033,1.712c-0.02,0.15-0.047,0.232-0.129,0.232c-0.117,0-0.15-0.065-0.168-0.281l-0.016-0.15
		c-0.033-0.365-0.406-0.798-1.701-0.813l-1.82-0.035v5.715c0,1.295,0.018,2.41,0.082,3.021c0.049,0.4,0.133,0.668,0.559,0.732
		c0.197,0.035,0.521,0.051,0.734,0.051c0.168,0,0.23,0.082,0.23,0.148c0,0.098-0.115,0.15-0.277,0.15
		c-0.949,0-1.918-0.053-2.326-0.053c-0.326,0-1.309,0.053-1.883,0.053c-0.182,0-0.279-0.053-0.279-0.15
		c0-0.066,0.051-0.148,0.229-0.148c0.215,0,0.393-0.016,0.51-0.051c0.291-0.064,0.373-0.332,0.426-0.746
		c0.064-0.598,0.064-1.713,0.064-3.008V49.519z"/>
	<path fill="#492918" d="M92.74,52.742c0-2.143,0-2.543-0.02-2.99c-0.033-0.48-0.164-0.632-0.619-0.763
		c-0.119-0.034-0.359-0.052-0.574-0.052c-0.15,0-0.246-0.051-0.246-0.148c0-0.101,0.115-0.134,0.33-0.134
		c0.75,0,1.67,0.033,2.078,0.033c0.459,0,3.652,0.017,3.928,0c0.266-0.017,0.494-0.067,0.607-0.082
		c0.082-0.017,0.164-0.067,0.227-0.067c0.086,0,0.102,0.067,0.102,0.133c0,0.1-0.082,0.266-0.115,0.913
		c-0.014,0.151-0.049,0.765-0.08,0.933c-0.016,0.066-0.051,0.231-0.166,0.231c-0.096,0-0.113-0.065-0.113-0.183
		c0-0.101-0.016-0.35-0.098-0.515c-0.115-0.249-0.229-0.448-0.949-0.516c-0.246-0.033-1.967-0.066-2.262-0.066
		c-0.066,0-0.096,0.05-0.096,0.134v3.486c0,0.084,0.016,0.151,0.096,0.151c0.326,0,2.195,0,2.523-0.034
		c0.344-0.033,0.539-0.082,0.688-0.215c0.115-0.102,0.164-0.186,0.229-0.186s0.115,0.068,0.115,0.151s-0.033,0.315-0.115,1.029
		c-0.033,0.284-0.064,0.848-0.064,0.948c0,0.115-0.018,0.314-0.148,0.314c-0.098,0-0.131-0.051-0.131-0.117
		c-0.016-0.148-0.016-0.329-0.051-0.514c-0.078-0.282-0.264-0.498-0.801-0.547c-0.264-0.033-1.902-0.066-2.26-0.066
		c-0.064,0-0.08,0.066-0.08,0.148v1.13c0,0.482-0.018,1.679,0,2.093c0.029,0.963,0.473,1.18,1.947,1.18
		c0.377,0,0.982-0.018,1.359-0.182c0.361-0.168,0.523-0.467,0.623-1.047c0.031-0.149,0.064-0.217,0.162-0.217
		c0.115,0,0.133,0.181,0.133,0.332c0,0.314-0.117,1.279-0.195,1.563c-0.1,0.365-0.232,0.365-0.771,0.365
		c-1.08,0-1.949-0.016-2.654-0.051c-0.703-0.016-1.246-0.035-1.67-0.035c-0.166,0-0.477,0.02-0.82,0.02
		c-0.342,0.016-0.703,0.034-0.998,0.034c-0.178,0-0.279-0.054-0.279-0.151c0-0.066,0.051-0.148,0.232-0.148
		c0.209,0,0.373-0.016,0.506-0.051c0.295-0.065,0.379-0.331,0.424-0.746c0.068-0.6,0.068-1.713,0.068-3.008V52.742z"/>
	<path fill="#492918" d="M107.414,51.593c0-2.522,0-2.987-0.035-3.521c-0.029-0.563-0.16-0.83-0.703-0.946
		c-0.127-0.033-0.41-0.051-0.635-0.051c-0.184,0-0.283-0.032-0.283-0.148c0-0.115,0.115-0.15,0.363-0.15
		c0.865,0,1.896,0.05,2.242,0.05c0.559,0,1.801-0.05,2.311-0.05c1.031,0,2.127,0.1,3.014,0.715c0.457,0.316,1.113,1.163,1.113,2.277
		c0,1.227-0.508,2.358-2.162,3.721c1.459,1.86,2.584,3.34,3.555,4.369c0.918,0.962,1.588,1.08,1.836,1.129
		c0.178,0.035,0.328,0.051,0.457,0.051c0.133,0,0.197,0.051,0.197,0.133c0,0.133-0.119,0.167-0.311,0.167h-1.557
		c-0.916,0-1.33-0.084-1.752-0.315c-0.705-0.384-1.328-1.164-2.242-2.443c-0.66-0.914-1.412-2.043-1.627-2.293
		c-0.082-0.1-0.178-0.117-0.295-0.117l-1.424-0.033c-0.084,0-0.129,0.033-0.129,0.135v0.232c0,1.545,0,2.857,0.08,3.555
		c0.049,0.48,0.146,0.847,0.637,0.914c0.248,0.033,0.609,0.066,0.803,0.066c0.133,0,0.197,0.051,0.197,0.133
		c0,0.113-0.109,0.167-0.326,0.167c-0.951,0-2.158-0.054-2.406-0.054c-0.314,0-1.346,0.054-2,0.054
		c-0.211,0-0.324-0.054-0.324-0.167c0-0.082,0.064-0.133,0.258-0.133c0.248,0,0.443-0.033,0.592-0.066
		c0.326-0.067,0.41-0.434,0.475-0.914c0.082-0.697,0.082-2.01,0.082-3.539V51.593z M109.348,52.907c0,0.183,0.031,0.251,0.145,0.3
		c0.346,0.117,0.838,0.166,1.246,0.166c0.654,0,0.869-0.066,1.166-0.283c0.488-0.364,0.963-1.13,0.963-2.49
		c0-2.359-1.541-3.041-2.508-3.041c-0.406,0-0.703,0.017-0.867,0.068c-0.113,0.032-0.145,0.099-0.145,0.23V52.907z"/>
	<path fill="#492918" d="M126.92,53.257c0.035,0,0.082-0.017,0.082-0.1v-0.301c0-2.141-0.014-2.658-0.035-3.105
		c-0.029-0.48-0.16-0.632-0.619-0.763c-0.113-0.034-0.359-0.052-0.559-0.052c-0.158,0-0.242-0.051-0.242-0.148
		c0-0.101,0.098-0.134,0.311-0.134c0.77,0,1.785,0.033,2.162,0.033c0.344,0,1.293-0.033,1.85-0.033c0.213,0,0.313,0.033,0.313,0.134
		c0,0.098-0.1,0.148-0.262,0.148c-0.113,0-0.248,0.018-0.428,0.052c-0.377,0.065-0.492,0.265-0.523,0.763
		c-0.033,0.447-0.033,0.848-0.033,2.99v2.492c0,1.295,0,2.408,0.064,3.021c0.051,0.401,0.131,0.667,0.578,0.732
		c0.193,0.035,0.504,0.051,0.734,0.051c0.145,0,0.227,0.082,0.227,0.148c0,0.098-0.113,0.151-0.293,0.151
		c-0.934,0-1.883-0.054-2.277-0.054c-0.326,0-1.342,0.054-1.9,0.054c-0.195,0-0.311-0.054-0.311-0.151
		c0-0.066,0.066-0.148,0.23-0.148c0.23,0,0.391-0.016,0.521-0.051c0.297-0.065,0.381-0.331,0.428-0.746
		c0.064-0.6,0.064-1.68,0.064-2.975v-1.08c0-0.051-0.047-0.084-0.082-0.084h-5.434c-0.051,0-0.1,0.018-0.1,0.084v1.08
		c0,1.295,0.014,2.375,0.082,2.988c0.049,0.401,0.131,0.667,0.557,0.732c0.193,0.035,0.525,0.051,0.734,0.051
		c0.166,0,0.23,0.082,0.23,0.148c0,0.098-0.113,0.151-0.295,0.151c-0.934,0-1.932-0.054-2.342-0.054
		c-0.326,0-1.275,0.054-1.854,0.054c-0.18,0-0.275-0.054-0.275-0.151c0-0.066,0.049-0.148,0.227-0.148
		c0.215,0,0.379-0.016,0.512-0.051c0.293-0.065,0.373-0.331,0.424-0.746c0.064-0.6,0.064-1.713,0.064-3.008v-2.492
		c0-2.143,0-2.543-0.016-2.99c-0.033-0.48-0.166-0.632-0.621-0.763c-0.113-0.034-0.363-0.052-0.576-0.052
		c-0.145,0-0.242-0.051-0.242-0.148c0-0.101,0.113-0.134,0.311-0.134c0.771,0,1.721,0.033,2.113,0.033
		c0.344,0,1.342-0.033,1.916-0.033c0.195,0,0.291,0.033,0.291,0.134c0,0.098-0.076,0.148-0.264,0.148
		c-0.109,0-0.242,0.018-0.404,0.052c-0.393,0.065-0.508,0.265-0.539,0.763c-0.033,0.447-0.033,0.965-0.033,3.105v0.301
		c0,0.083,0.049,0.1,0.1,0.1H126.92z"/>
	<path fill="#492918" d="M133.652,52.742c0-2.143,0-2.543-0.016-2.99c-0.031-0.48-0.182-0.646-0.494-0.746
		c-0.16-0.051-0.342-0.068-0.521-0.068c-0.148,0-0.229-0.033-0.229-0.166c0-0.083,0.115-0.116,0.346-0.116
		c0.537,0,1.52,0.033,1.93,0.033c0.361,0,1.295-0.033,1.85-0.033c0.182,0,0.297,0.033,0.297,0.116c0,0.133-0.084,0.166-0.229,0.166
		c-0.148,0-0.262,0.018-0.428,0.052c-0.391,0.065-0.506,0.265-0.541,0.763c-0.031,0.447-0.031,0.848-0.031,2.99v2.492
		c0,1.361,0,2.492,0.066,3.09c0.049,0.381,0.145,0.599,0.568,0.664c0.199,0.035,0.531,0.051,0.742,0.051
		c0.16,0,0.227,0.082,0.227,0.148c0,0.098-0.113,0.151-0.275,0.151c-0.951,0-1.936-0.054-2.328-0.054
		c-0.328,0-1.311,0.054-1.883,0.054c-0.182,0-0.277-0.054-0.277-0.151c0-0.066,0.047-0.148,0.227-0.148
		c0.213,0,0.375-0.016,0.508-0.051c0.295-0.065,0.377-0.266,0.426-0.68c0.066-0.582,0.066-1.713,0.066-3.074V52.742z"/>
	<path fill="#492918" d="M141.221,57.41c0.029,1.098,0.211,1.428,0.488,1.529c0.246,0.084,0.525,0.1,0.758,0.1
		c0.16,0,0.244,0.066,0.244,0.148c0,0.117-0.133,0.15-0.328,0.15c-0.934,0-1.605-0.051-1.867-0.051c-0.133,0-0.82,0.051-1.557,0.051
		c-0.195,0-0.33-0.017-0.33-0.15c0-0.082,0.104-0.148,0.232-0.148c0.197,0,0.455-0.016,0.652-0.066
		c0.381-0.1,0.43-0.482,0.443-1.711l0.135-8.375c0-0.28,0.098-0.48,0.244-0.48c0.18,0,0.377,0.215,0.621,0.467
		c0.182,0.182,2.344,2.424,4.438,4.5c0.986,0.98,2.9,2.975,3.113,3.173h0.063l-0.143-6.28c-0.018-0.861-0.146-1.11-0.492-1.244
		c-0.215-0.084-0.559-0.084-0.756-0.084c-0.18,0-0.23-0.064-0.23-0.148c0-0.117,0.15-0.134,0.361-0.134
		c0.756,0,1.523,0.033,1.832,0.033c0.168,0,0.707-0.033,1.412-0.033c0.195,0,0.328,0.017,0.328,0.134
		c0,0.084-0.082,0.148-0.246,0.148c-0.148,0-0.264,0-0.441,0.05c-0.393,0.118-0.508,0.366-0.523,1.163l-0.166,8.904
		c0,0.315-0.113,0.449-0.23,0.449c-0.242,0-0.441-0.15-0.588-0.3c-0.9-0.847-2.701-2.593-4.211-4.069
		c-1.568-1.527-3.092-3.24-3.373-3.49h-0.045L141.221,57.41z"/>
	<path fill="#492918" d="M152.357,53.987c0-2.409,1.67-5.53,6.045-5.53c3.635,0,5.893,2.042,5.893,5.283
		c0,3.238-2.322,5.779-6.043,5.779C154.061,59.519,152.357,56.498,152.357,53.987 M162.148,54.253c0-3.122-1.848-5.051-4.176-5.051
		c-1.604,0-3.486,0.866-3.486,4.354c0,2.906,1.635,5.198,4.357,5.198C159.857,58.754,162.148,58.274,162.148,54.253"/>
	<path fill="#492918" d="M165.586,44.289c0.439,0,0.861,0.112,1.264,0.334c0.408,0.225,0.725,0.543,0.959,0.96
		c0.227,0.419,0.342,0.854,0.342,1.312c0,0.453-0.111,0.883-0.338,1.297c-0.229,0.41-0.543,0.732-0.949,0.962
		c-0.406,0.231-0.832,0.345-1.277,0.345c-0.449,0-0.875-0.113-1.279-0.345c-0.408-0.229-0.725-0.552-0.953-0.962
		c-0.225-0.414-0.338-0.844-0.338-1.297c0-0.457,0.115-0.893,0.35-1.312c0.229-0.417,0.549-0.735,0.951-0.96
		C164.723,44.401,165.146,44.289,165.586,44.289 M165.588,44.798c-0.352,0-0.693,0.09-1.018,0.27
		c-0.322,0.179-0.58,0.436-0.764,0.771c-0.188,0.336-0.283,0.688-0.283,1.055c0,0.365,0.094,0.712,0.277,1.043
		c0.18,0.331,0.438,0.588,0.76,0.775c0.328,0.184,0.668,0.281,1.027,0.281s0.705-0.098,1.025-0.281
		c0.33-0.188,0.582-0.444,0.764-0.775c0.184-0.331,0.273-0.678,0.273-1.043c0-0.367-0.09-0.719-0.275-1.055s-0.445-0.593-0.77-0.771
		C166.281,44.888,165.941,44.798,165.588,44.798 M164.422,48.287v-2.764h0.557c0.518,0,0.807,0,0.869,0.006
		c0.184,0.017,0.328,0.053,0.428,0.11c0.102,0.06,0.186,0.147,0.254,0.268c0.07,0.116,0.104,0.249,0.104,0.395
		c0,0.2-0.064,0.37-0.193,0.511c-0.127,0.143-0.307,0.232-0.537,0.264c0.08,0.033,0.145,0.066,0.186,0.105
		c0.049,0.035,0.109,0.107,0.186,0.212c0.021,0.027,0.088,0.139,0.203,0.337l0.32,0.557h-0.686l-0.223-0.449
		c-0.158-0.3-0.285-0.49-0.383-0.569c-0.102-0.077-0.23-0.118-0.387-0.118h-0.141v1.137H164.422z M164.979,46.715h0.225
		c0.318,0,0.518-0.011,0.592-0.036c0.082-0.025,0.137-0.07,0.188-0.131c0.043-0.063,0.064-0.133,0.064-0.213
		c0-0.078-0.021-0.146-0.064-0.205c-0.045-0.061-0.105-0.104-0.188-0.129c-0.08-0.026-0.277-0.039-0.592-0.039h-0.225V46.715z"/>
	<path fill="#804B1F" d="M60.649,34.892c0.582-1.336,1.259-2.65,1.128-4.203c-0.027-0.322,0.15-0.708,0.334-0.996
		c1.324-2.077,1.689-4.287,1.285-6.744c-0.691-4.218,3.418-7.786,6.797-7.484c1.143,0.1,2.227-0.076,3.293-0.549
		c0.52-0.231,1.137-0.347,1.703-0.323c1.496,0.065,2.996,0.17,4.482,0.379c2.58,0.367,5.117,0.416,7.664-0.326
		c2.209-0.643,4.316-0.396,6.174,1.15c0.428,0.354,0.967,0.59,1.48,0.811c1.006,0.429,1.607,1.174,1.953,2.205
		c0.148,0.436,0.389,0.871,0.684,1.223c0.609,0.71,1.127,0.747,1.924,0.25c0.184-0.113,0.373-0.215,0.561-0.322
		c0.059,0.043,0.123,0.087,0.186,0.131c-0.145,0.458-0.24,0.938-0.436,1.372c-0.205,0.446-0.223,0.816,0.137,1.166
		c0.479,0.461,0.488,1.012,0.424,1.643c-0.068,0.697-0.086,1.434,0.059,2.114c0.225,1.046,1.027,1.369,1.998,0.943
		c0.287-0.126,0.59-0.224,0.885-0.332c0.059,0.057,0.119,0.112,0.176,0.167c-0.361,0.645-0.725,1.289-1.092,1.945
		c2.121,0.115,3.844-0.375,4.604-2.643c0.078,0.121,0.139,0.176,0.146,0.236c0.016,0.11,0.029,0.221,0.037,0.332
		c0.004-0.078,0.004-0.156,0.004-0.233c0-13.489-10.783-24.423-24.08-24.423c-13.299,0-24.075,10.934-24.075,24.423
		c0,2.951,0.516,5.78,1.463,8.399C60.563,35.113,60.597,35.009,60.649,34.892"/>
	<path fill="#804B1F" d="M105.039,31.043c-0.932,0.549-1.734,1.167-2.236,2.187c-0.223,0.467-0.689,0.83-1.102,1.177
		c-0.164,0.142-0.523,0.235-0.703,0.147c-1.068-0.515-2.451-0.535-3-1.895c-1.563-1.004-2.373-2.592-3.176-4.188
		c-0.074-0.15-0.178-0.287-0.352-0.57c-0.055,0.265-0.123,0.391-0.088,0.452c0.764,1.305,1.092,2.759,1.514,4.19
		c0.217,0.752,0.74,1.411,1.105,2.126c0.107,0.217,0.217,0.499,0.162,0.712c-0.027,0.115-0.391,0.207-0.602,0.205
		c-0.68-0.007-1.357-0.104-2.037-0.086c-0.666,0.016-0.793-0.326-0.738-0.895c0.104-0.957-0.08-1.833-0.691-2.607
		c-0.561-0.702-1.135-1.402-1.596-2.17c-0.387-0.648-0.895-0.637-1.445-0.449c-0.779,0.264-1.32,0.789-1.463,1.663
		c-0.102,0.61-0.236,1.214-0.352,1.82c-0.131,0.696-0.189,1.366,0.441,1.897c0.143,0.121,0.254,0.382,0.24,0.569
		c-0.012,0.172-0.205,0.466-0.33,0.472c-0.846,0.051-1.688,0.08-2.529,0.033c-0.863-0.047-0.943-0.304-0.488-1.088
		c0.18-0.313,0.342-0.678,0.377-1.031c0.072-0.682,0.041-1.373,0.061-2.061c0.025-0.809,0.072-1.617,0.088-2.424
		c0.01-0.47-0.137-0.781-0.713-0.666c-0.732,0.146-1.475,0.251-2.215,0.363c-3.525,0.533-7.031,0.953-10.002-1.756
		c-0.342-0.313-0.678-0.195-0.887,0.158c-0.176,0.295-0.371,0.645-0.377,0.974c-0.037,1.935,0.451,3.712,1.67,5.238
		c0.338,0.425,0.752,0.795,1.047,1.245c0.32,0.48,0.109,0.85-0.434,0.854c-0.75,0.002-1.504,0.001-2.248-0.034
		c-0.742-0.034-0.936-0.383-0.854-1.133c0.041-0.354-0.027-0.854-0.248-1.087c-0.979-1.032-1.414-2.334-1.932-3.606
		c-0.262-0.648-0.623-1.258-0.918-1.846c-1.734,0.977-2.85,2.344-3.719,4.023c-0.553,1.072-1.008,2.004-0.361,3.18
		c0.264,0.477-0.01,0.801-0.523,0.795c-0.752-0.012-1.496-0.063-2.242-0.139c-0.178-0.019-0.318-0.055-0.422-0.115
		c1.007,2.619,2.447,5.017,4.23,7.106l36.408,0.001c3.58-4.188,5.773-9.623,5.871-15.578C107.1,28.839,106.479,30.2,105.039,31.043"
		/>
	<g>
		<path fill="#804B1F" d="M13.269,88.417l-1.053-3.124L8.98,85.335l-1.132,3.082H7.01l3.335-8.456l0.984-0.292l3.121,8.748H13.269z
			 M12.044,84.736l-1.396-3.982l-1.461,3.982H12.044z"/>
		<path fill="#804B1F" d="M23.856,88.417v-3.965h-4.625v3.965h-1.143v-8.531h1.143v3.941h4.625v-3.941h1.141v8.531H23.856z"/>
		<path fill="#804B1F" d="M29.261,82.594c0.246,0,0.486,0.036,0.723,0.108s0.451,0.193,0.645,0.362
			c0.195,0.169,0.365,0.395,0.51,0.675c0.145,0.281,0.254,0.629,0.324,1.046v0.066c-0.049,0.062-0.117,0.116-0.201,0.167
			c-0.084,0.05-0.195,0.094-0.332,0.133s-0.307,0.074-0.506,0.104s-0.439,0.054-0.719,0.071l-1.824,0.125v0.357
			c0,0.672,0.119,1.161,0.354,1.467c0.236,0.305,0.592,0.458,1.068,0.458c0.197,0,0.4-0.02,0.611-0.059
			c0.211-0.038,0.412-0.086,0.604-0.142c0.193-0.055,0.367-0.112,0.521-0.17c0.156-0.059,0.279-0.11,0.367-0.154l0.139,0.324
			c-0.158,0.105-0.336,0.217-0.533,0.334c-0.197,0.116-0.41,0.223-0.637,0.32c-0.229,0.098-0.467,0.178-0.715,0.242
			c-0.25,0.063-0.506,0.096-0.768,0.096c-0.313,0-0.602-0.051-0.867-0.15s-0.496-0.262-0.693-0.483s-0.352-0.513-0.465-0.87
			c-0.111-0.359-0.168-0.793-0.168-1.305c0-0.572,0.066-1.058,0.197-1.457c0.131-0.4,0.313-0.723,0.541-0.967
			c0.23-0.244,0.502-0.422,0.814-0.533S28.899,82.594,29.261,82.594z M28.333,83.419c-0.061,0.044-0.117,0.115-0.168,0.212
			c-0.053,0.097-0.098,0.214-0.137,0.351c-0.037,0.136-0.07,0.284-0.094,0.445c-0.025,0.161-0.037,0.324-0.037,0.492l2.35-0.101
			c-0.027-0.188-0.068-0.38-0.119-0.571c-0.053-0.191-0.123-0.361-0.215-0.512c-0.09-0.15-0.203-0.272-0.34-0.367
			c-0.137-0.094-0.305-0.141-0.502-0.141c-0.131,0-0.262,0.014-0.391,0.041C28.554,83.296,28.437,83.347,28.333,83.419z"/>
		<path fill="#804B1F" d="M35.938,83.619c-0.127-0.011-0.268-0.023-0.428-0.037c-0.158-0.014-0.309-0.021-0.451-0.021
			c-0.104,0-0.193,0.012-0.268,0.034s-0.145,0.057-0.213,0.104c-0.068,0.047-0.135,0.102-0.201,0.166s-0.143,0.138-0.23,0.221v4.332
			h-1.109v-5.698h0.929l0.156,0.892h0.008c0.061-0.072,0.123-0.151,0.189-0.238c0.064-0.086,0.131-0.168,0.201-0.245
			c0.068-0.077,0.141-0.149,0.217-0.217c0.076-0.066,0.158-0.119,0.246-0.158c0.148-0.066,0.314-0.109,0.502-0.129
			c0.186-0.02,0.391-0.029,0.615-0.029L35.938,83.619z"/>
		<path fill="#804B1F" d="M37.827,79.794l0.756,0.759l-0.756,0.758l-0.746-0.758L37.827,79.794z M37.286,88.417v-5.698h1.107v5.698
			H37.286z"/>
		<path fill="#804B1F" d="M40.397,83.335l-0.631-0.059v-0.324l1.486-1.233h0.221l0.025,1h1.536l-0.072,0.509
			c-0.139,0.016-0.289,0.031-0.457,0.045c-0.166,0.014-0.325,0.027-0.473,0.037c-0.174,0.018-0.35,0.028-0.525,0.034v3.708
			c0,0.205,0.037,0.375,0.111,0.512s0.234,0.204,0.48,0.204c0.131,0,0.292-0.003,0.477-0.009c0.186-0.005,0.355-0.014,0.51-0.024
			v0.392c-0.082,0.039-0.188,0.08-0.316,0.125s-0.27,0.088-0.424,0.129c-0.153,0.042-0.307,0.076-0.459,0.104
			c-0.154,0.027-0.297,0.042-0.428,0.042c-0.121,0-0.244-0.016-0.369-0.047c-0.127-0.03-0.24-0.087-0.342-0.17
			c-0.102-0.084-0.184-0.201-0.25-0.354s-0.1-0.351-0.1-0.596V83.335z"/>
		<path fill="#804B1F" d="M48.571,87.827c0.148,0,0.342-0.034,0.584-0.101v0.358c-0.176,0.095-0.367,0.187-0.576,0.275
			c-0.207,0.089-0.426,0.134-0.656,0.134c-0.131,0-0.244-0.021-0.338-0.063c-0.092-0.043-0.17-0.098-0.229-0.168
			c-0.061-0.068-0.109-0.145-0.148-0.229s-0.072-0.166-0.1-0.25c-0.141,0.095-0.277,0.186-0.41,0.275
			c-0.131,0.088-0.27,0.168-0.414,0.237s-0.301,0.125-0.464,0.167c-0.164,0.041-0.348,0.063-0.551,0.063
			c-0.459,0-0.822-0.13-1.088-0.389c-0.266-0.258-0.398-0.648-0.398-1.17c0-0.277,0.041-0.521,0.119-0.729
			c0.08-0.209,0.207-0.384,0.383-0.525c0.174-0.142,0.402-0.248,0.682-0.32s0.621-0.114,1.027-0.125l1.01-0.033v-1.009
			c0-0.316-0.063-0.548-0.189-0.695c-0.125-0.147-0.336-0.222-0.633-0.222c-0.213,0-0.472,0.041-0.779,0.121
			c-0.307,0.081-0.607,0.186-0.904,0.313L44.3,83.21c0.176-0.072,0.361-0.146,0.555-0.221c0.195-0.074,0.393-0.142,0.596-0.199
			c0.203-0.059,0.408-0.105,0.615-0.143c0.209-0.035,0.414-0.054,0.617-0.054c0.225,0,0.426,0.024,0.604,0.075
			c0.178,0.05,0.328,0.135,0.451,0.254s0.217,0.277,0.279,0.475s0.096,0.44,0.096,0.729v2.724
			C48.112,87.501,48.265,87.827,48.571,87.827z M47.036,87.402c0-0.027-0.006-0.188-0.018-0.479
			c-0.01-0.292-0.016-0.704-0.016-1.237c-0.598,0-1.049,0.039-1.355,0.117c-0.307,0.078-0.496,0.155-0.566,0.232
			c-0.066,0.072-0.113,0.176-0.145,0.309c-0.029,0.133-0.045,0.289-0.045,0.467c0,0.316,0.053,0.56,0.16,0.729
			c0.107,0.17,0.285,0.254,0.537,0.254c0.27,0,0.515-0.029,0.74-0.091S46.788,87.541,47.036,87.402z"/>
		<path fill="#804B1F" d="M51.659,92.392c-0.34,0-0.627-0.033-0.861-0.1c-0.236-0.066-0.426-0.157-0.572-0.271
			c-0.145-0.113-0.25-0.246-0.316-0.396c-0.064-0.149-0.098-0.308-0.098-0.475c0-0.145,0.02-0.28,0.057-0.408
			c0.039-0.128,0.088-0.25,0.148-0.366c0.061-0.117,0.129-0.227,0.205-0.33c0.078-0.103,0.156-0.201,0.238-0.295l0.279,0.1
			c-0.061,0.155-0.104,0.3-0.131,0.434c-0.027,0.133-0.041,0.277-0.041,0.433c0,0.3,0.115,0.539,0.346,0.717
			c0.229,0.178,0.535,0.267,0.92,0.267c0.377,0,0.721-0.036,1.029-0.108c0.311-0.072,0.576-0.188,0.801-0.351
			c0.143-0.11,0.25-0.265,0.32-0.462c0.072-0.197,0.107-0.415,0.107-0.653c0-0.283-0.09-0.494-0.271-0.629
			c-0.18-0.137-0.486-0.205-0.92-0.205l-0.895-0.008c-0.646-0.006-1.115-0.094-1.408-0.263s-0.439-0.446-0.439-0.829
			c0-0.111,0.023-0.225,0.068-0.342c0.047-0.116,0.107-0.229,0.182-0.337s0.156-0.214,0.246-0.317
			c0.09-0.102,0.18-0.195,0.268-0.278c-0.297-0.178-0.539-0.428-0.732-0.75c-0.191-0.322-0.287-0.73-0.287-1.225
			c0-0.361,0.057-0.688,0.168-0.979c0.113-0.291,0.271-0.538,0.473-0.741c0.203-0.202,0.441-0.358,0.715-0.466
			c0.273-0.109,0.572-0.163,0.896-0.163c0.268,0,0.506,0.017,0.713,0.05c0.209,0.033,0.412,0.08,0.609,0.142
			c0.262-0.011,0.543-0.033,0.842-0.066s0.559-0.075,0.783-0.125l-0.123,0.575c-0.125,0.045-0.281,0.08-0.467,0.107
			c-0.188,0.028-0.359,0.042-0.518,0.042c0.092,0.167,0.172,0.366,0.238,0.601c0.064,0.232,0.098,0.535,0.098,0.908
			c0,0.371-0.063,0.699-0.186,0.982s-0.287,0.52-0.496,0.709c-0.209,0.188-0.455,0.331-0.74,0.428
			c-0.283,0.098-0.586,0.146-0.902,0.146c-0.109,0-0.24-0.004-0.391-0.013s-0.268-0.026-0.35-0.054
			c-0.037,0.078-0.078,0.188-0.123,0.333c-0.043,0.145-0.064,0.289-0.064,0.433c0,0.173,0.08,0.289,0.242,0.351
			c0.16,0.062,0.357,0.092,0.586,0.092h1.209c0.365,0,0.674,0.028,0.924,0.087c0.248,0.059,0.449,0.15,0.604,0.275
			c0.152,0.125,0.262,0.281,0.328,0.471c0.066,0.188,0.1,0.414,0.1,0.675c0,0.316-0.086,0.634-0.256,0.95s-0.406,0.6-0.711,0.85
			c-0.303,0.25-0.664,0.454-1.08,0.612S52.153,92.392,51.659,92.392z M52.038,86.501c0.371,0,0.674-0.078,0.902-0.232
			c0.109-0.078,0.197-0.23,0.26-0.459c0.063-0.228,0.094-0.553,0.094-0.975c0-0.233-0.027-0.449-0.082-0.65
			c-0.055-0.199-0.135-0.373-0.242-0.52c-0.107-0.148-0.236-0.264-0.387-0.347s-0.318-0.124-0.504-0.124
			c-0.352,0-0.623,0.068-0.814,0.207c-0.225,0.167-0.336,0.656-0.336,1.467c0,0.211,0.027,0.416,0.082,0.612
			c0.055,0.197,0.131,0.371,0.23,0.521c0.098,0.15,0.215,0.271,0.35,0.363C51.724,86.457,51.874,86.501,52.038,86.501z"/>
		<path fill="#804B1F" d="M58.501,82.594c0.248,0,0.488,0.036,0.725,0.108c0.234,0.072,0.449,0.193,0.645,0.362
			c0.193,0.169,0.363,0.395,0.508,0.675c0.146,0.281,0.253,0.629,0.326,1.046v0.066c-0.051,0.062-0.117,0.116-0.201,0.167
			c-0.086,0.05-0.197,0.094-0.334,0.133s-0.305,0.074-0.504,0.104c-0.201,0.03-0.439,0.054-0.719,0.071l-1.824,0.125v0.357
			c0,0.672,0.117,1.161,0.354,1.467c0.234,0.305,0.592,0.458,1.068,0.458c0.195,0,0.4-0.02,0.611-0.059
			c0.211-0.038,0.412-0.086,0.604-0.142c0.191-0.055,0.365-0.112,0.521-0.17c0.156-0.059,0.277-0.11,0.365-0.154l0.141,0.324
			c-0.16,0.105-0.337,0.217-0.535,0.334c-0.197,0.116-0.408,0.223-0.637,0.32c-0.227,0.098-0.465,0.178-0.715,0.242
			c-0.248,0.063-0.504,0.096-0.768,0.096c-0.313,0-0.6-0.051-0.865-0.15s-0.498-0.262-0.695-0.483s-0.352-0.513-0.463-0.87
			c-0.113-0.359-0.17-0.793-0.17-1.305c0-0.572,0.066-1.058,0.197-1.457c0.133-0.4,0.313-0.723,0.543-0.967s0.5-0.422,0.813-0.533
			S58.14,82.594,58.501,82.594z M57.573,83.419c-0.061,0.044-0.115,0.115-0.168,0.212s-0.098,0.214-0.135,0.351
			c-0.039,0.136-0.07,0.284-0.096,0.445c-0.023,0.161-0.037,0.324-0.037,0.492l2.35-0.101c-0.027-0.188-0.066-0.38-0.119-0.571
			s-0.123-0.361-0.213-0.512s-0.205-0.272-0.342-0.367c-0.137-0.094-0.303-0.141-0.5-0.141c-0.133,0-0.262,0.014-0.391,0.041
			S57.677,83.347,57.573,83.419z"/>
		<path fill="#804B1F" d="M67.199,88.527c-0.881,0-1.557-0.252-2.025-0.754c-0.467-0.504-0.701-1.238-0.701-2.205
			c0-0.455,0.057-0.867,0.172-1.236s0.287-0.682,0.518-0.938s0.516-0.453,0.854-0.592c0.34-0.139,0.734-0.208,1.184-0.208
			c0.443,0,0.836,0.065,1.174,0.196c0.34,0.13,0.625,0.322,0.855,0.574c0.23,0.253,0.402,0.563,0.518,0.93
			c0.115,0.366,0.172,0.785,0.172,1.258c0,0.461-0.057,0.875-0.172,1.241s-0.287,0.679-0.518,0.937
			c-0.23,0.259-0.516,0.456-0.855,0.592C68.035,88.458,67.643,88.527,67.199,88.527z M65.646,85.56c0,0.417,0.029,0.772,0.086,1.066
			c0.059,0.295,0.148,0.536,0.271,0.725c0.123,0.189,0.283,0.328,0.477,0.417c0.195,0.089,0.428,0.134,0.703,0.134
			c0.225,0,0.418-0.022,0.582-0.066c0.164-0.045,0.328-0.129,0.494-0.25c0.191-0.145,0.32-0.396,0.385-0.754
			c0.066-0.359,0.1-0.779,0.1-1.264c0-0.811-0.123-1.403-0.365-1.777c-0.244-0.375-0.633-0.563-1.164-0.563
			c-0.219,0-0.414,0.021-0.586,0.066c-0.174,0.044-0.336,0.122-0.488,0.232c-0.094,0.067-0.17,0.168-0.23,0.305
			s-0.111,0.295-0.152,0.475c-0.041,0.181-0.07,0.379-0.086,0.596C65.654,85.119,65.646,85.338,65.646,85.56z"/>
		<path fill="#804B1F" d="M74.576,79.794c-0.133-0.027-0.27-0.045-0.416-0.054c-0.145-0.009-0.279-0.013-0.406-0.013
			c-0.121,0-0.248,0.008-0.387,0.025c-0.137,0.017-0.242,0.063-0.32,0.142c-0.043,0.044-0.08,0.12-0.109,0.229
			c-0.031,0.107-0.055,0.242-0.07,0.403s-0.029,0.346-0.037,0.554c-0.008,0.209-0.012,0.433-0.012,0.672v0.966h1.404l-0.082,0.533
			c-0.16,0.011-0.314,0.022-0.469,0.033c-0.131,0.011-0.273,0.021-0.428,0.029c-0.152,0.009-0.295,0.015-0.426,0.021v5.082h-1.109
			v-5.082h-0.551c-0.121,0-0.248-0.002-0.385-0.008l0.082-0.375c0.113-0.027,0.227-0.053,0.336-0.075
			c0.094-0.022,0.188-0.042,0.283-0.058c0.096-0.018,0.174-0.031,0.234-0.043v-1.032c0-0.355,0.068-0.704,0.205-1.046
			s0.316-0.646,0.539-0.912c0.221-0.267,0.473-0.482,0.754-0.646c0.283-0.163,0.566-0.245,0.852-0.245
			c0.115,0,0.24,0.003,0.377,0.009s0.256,0.014,0.354,0.024L74.576,79.794z"/>
		<path fill="#804B1F" d="M84.998,83.502c0-0.122-0.008-0.25-0.027-0.384c-0.02-0.133-0.041-0.232-0.063-0.299l0.938-0.209
			c0.027,0.078,0.049,0.178,0.064,0.3c0.018,0.122,0.025,0.239,0.025,0.351c0,0.395-0.064,0.811-0.193,1.249
			s-0.293,0.881-0.492,1.325c-0.201,0.444-0.42,0.886-0.658,1.324c-0.238,0.439-0.467,0.858-0.686,1.258h-1.068
			c-0.174-0.672-0.361-1.344-0.563-2.016c-0.199-0.672-0.408-1.305-0.627-1.9h-0.025c-0.088,0.322-0.189,0.652-0.305,0.988
			s-0.238,0.672-0.369,1.008s-0.271,0.666-0.422,0.991c-0.152,0.325-0.307,0.635-0.465,0.929h-1.051
			c-0.137-0.521-0.279-1.058-0.428-1.607s-0.291-1.063-0.432-1.537c-0.139-0.475-0.268-0.883-0.387-1.225
			c-0.117-0.342-0.215-0.568-0.291-0.68c-0.064-0.088-0.135-0.15-0.209-0.188c-0.074-0.035-0.158-0.054-0.25-0.054h-0.123v-0.342
			c0.037-0.011,0.094-0.024,0.168-0.042c0.074-0.016,0.152-0.031,0.234-0.045s0.164-0.025,0.246-0.033
			c0.082-0.009,0.15-0.014,0.205-0.014c0.143,0,0.268,0.02,0.373,0.059c0.107,0.039,0.201,0.109,0.283,0.209
			c0.066,0.083,0.137,0.213,0.215,0.391c0.076,0.179,0.156,0.389,0.242,0.63c0.084,0.241,0.17,0.509,0.254,0.804
			c0.086,0.295,0.17,0.599,0.256,0.912c0.084,0.314,0.168,0.631,0.25,0.95s0.16,0.626,0.238,0.921h0.023
			c0.182-0.355,0.348-0.721,0.498-1.096s0.285-0.75,0.406-1.125s0.227-0.744,0.316-1.107c0.09-0.364,0.166-0.713,0.227-1.047
			l0.928-0.125c0.098,0.256,0.207,0.561,0.328,0.913s0.244,0.728,0.369,1.124c0.127,0.398,0.254,0.808,0.383,1.229
			c0.129,0.423,0.25,0.833,0.365,1.233h0.025c0.213-0.395,0.398-0.768,0.559-1.121c0.158-0.353,0.291-0.691,0.398-1.016
			c0.105-0.326,0.186-0.644,0.236-0.955C84.973,84.125,84.998,83.814,84.998,83.502z"/>
		<path fill="#804B1F" d="M91.75,87.827c0.148,0,0.344-0.034,0.584-0.101v0.358c-0.176,0.095-0.367,0.187-0.574,0.275
			c-0.209,0.089-0.428,0.134-0.658,0.134c-0.131,0-0.244-0.021-0.336-0.063c-0.094-0.043-0.17-0.098-0.23-0.168
			c-0.061-0.068-0.109-0.145-0.148-0.229c-0.037-0.084-0.07-0.166-0.098-0.25c-0.143,0.095-0.279,0.186-0.412,0.275
			c-0.131,0.088-0.27,0.168-0.414,0.237s-0.299,0.125-0.465,0.167c-0.164,0.041-0.348,0.063-0.549,0.063
			c-0.461,0-0.824-0.13-1.09-0.389c-0.266-0.258-0.396-0.648-0.396-1.17c0-0.277,0.039-0.521,0.117-0.729
			c0.08-0.209,0.207-0.384,0.383-0.525s0.402-0.248,0.682-0.32s0.621-0.114,1.027-0.125l1.01-0.033v-1.009
			c0-0.316-0.063-0.548-0.189-0.695c-0.125-0.147-0.336-0.222-0.631-0.222c-0.215,0-0.475,0.041-0.781,0.121
			c-0.307,0.081-0.607,0.186-0.904,0.313l-0.197-0.533c0.176-0.072,0.361-0.146,0.555-0.221c0.195-0.074,0.393-0.142,0.596-0.199
			c0.203-0.059,0.408-0.105,0.617-0.143c0.207-0.035,0.412-0.054,0.615-0.054c0.225,0,0.426,0.024,0.604,0.075
			c0.178,0.05,0.328,0.135,0.451,0.254c0.125,0.119,0.217,0.277,0.279,0.475c0.064,0.197,0.096,0.44,0.096,0.729v2.724
			C91.291,87.501,91.443,87.827,91.75,87.827z M90.215,87.402c0-0.027-0.006-0.188-0.018-0.479c-0.01-0.292-0.016-0.704-0.016-1.237
			c-0.598,0-1.049,0.039-1.355,0.117s-0.496,0.155-0.566,0.232c-0.066,0.072-0.113,0.176-0.145,0.309
			c-0.029,0.133-0.045,0.289-0.045,0.467c0,0.316,0.055,0.56,0.16,0.729c0.107,0.17,0.287,0.254,0.539,0.254
			c0.268,0,0.514-0.029,0.738-0.091S89.969,87.541,90.215,87.402z"/>
		<path fill="#804B1F" d="M96.316,83.619c-0.125-0.011-0.268-0.023-0.426-0.037c-0.16-0.014-0.311-0.021-0.451-0.021
			c-0.105,0-0.193,0.012-0.268,0.034s-0.145,0.057-0.215,0.104c-0.068,0.047-0.135,0.102-0.201,0.166
			c-0.064,0.064-0.141,0.138-0.229,0.221v4.332h-1.109v-5.698h0.928l0.156,0.892h0.008c0.061-0.072,0.123-0.151,0.189-0.238
			c0.066-0.086,0.133-0.168,0.201-0.245s0.141-0.149,0.217-0.217c0.078-0.066,0.16-0.119,0.248-0.158
			c0.146-0.066,0.314-0.109,0.5-0.129s0.393-0.029,0.617-0.029L96.316,83.619z"/>
		<path fill="#804B1F" d="M101.27,88.417v-3.965c0-0.134-0.01-0.266-0.027-0.396c-0.02-0.131-0.061-0.246-0.123-0.35
			c-0.064-0.103-0.152-0.188-0.268-0.254s-0.268-0.1-0.461-0.1c-0.125,0-0.26,0.016-0.402,0.049s-0.283,0.076-0.426,0.125
			c-0.143,0.051-0.283,0.109-0.42,0.176s-0.26,0.133-0.369,0.199v4.516h-1.109v-5.698h0.928l0.166,0.667
			c0.113-0.072,0.25-0.154,0.406-0.246s0.324-0.178,0.504-0.258c0.182-0.081,0.371-0.149,0.572-0.205
			c0.199-0.055,0.398-0.083,0.596-0.083c0.322,0,0.605,0.072,0.85,0.217s0.426,0.364,0.545,0.658l0.133-0.083
			c0.115-0.072,0.25-0.154,0.406-0.246s0.324-0.178,0.506-0.258c0.18-0.081,0.369-0.149,0.57-0.205
			c0.199-0.055,0.398-0.083,0.596-0.083c0.225,0,0.432,0.034,0.619,0.104c0.189,0.069,0.352,0.175,0.488,0.316
			c0.139,0.142,0.244,0.316,0.32,0.525c0.078,0.207,0.115,0.453,0.115,0.736v4.141h-1.107v-3.965c0-0.134-0.01-0.266-0.029-0.396
			s-0.061-0.246-0.123-0.35c-0.063-0.103-0.152-0.188-0.268-0.254s-0.268-0.1-0.459-0.1c-0.127,0-0.262,0.018-0.408,0.054
			c-0.145,0.036-0.289,0.081-0.434,0.134c-0.146,0.053-0.289,0.111-0.428,0.178c-0.141,0.067-0.264,0.134-0.373,0.201
			c0.016,0.116,0.023,0.236,0.023,0.357v4.141H101.27z"/>
		<path fill="#804B1F" d="M116.293,88.417v-3.965h-4.623v3.965h-1.143v-8.531h1.143v3.941h4.623v-3.941h1.143v8.531H116.293z"/>
		<path fill="#804B1F" d="M121.863,88.527c-0.883,0-1.557-0.252-2.025-0.754c-0.469-0.504-0.701-1.238-0.701-2.205
			c0-0.455,0.057-0.867,0.172-1.236s0.287-0.682,0.518-0.938s0.514-0.453,0.854-0.592s0.734-0.208,1.184-0.208
			c0.443,0,0.834,0.065,1.174,0.196c0.34,0.13,0.625,0.322,0.854,0.574c0.23,0.253,0.404,0.563,0.518,0.93
			c0.115,0.366,0.174,0.785,0.174,1.258c0,0.461-0.059,0.875-0.174,1.241c-0.113,0.366-0.287,0.679-0.518,0.937
			c-0.229,0.259-0.514,0.456-0.854,0.592C122.697,88.458,122.307,88.527,121.863,88.527z M120.311,85.56
			c0,0.417,0.029,0.772,0.086,1.066c0.059,0.295,0.148,0.536,0.271,0.725c0.123,0.189,0.281,0.328,0.477,0.417
			c0.193,0.089,0.428,0.134,0.701,0.134c0.225,0,0.42-0.022,0.584-0.066c0.164-0.045,0.328-0.129,0.492-0.25
			c0.191-0.145,0.32-0.396,0.387-0.754c0.066-0.359,0.098-0.779,0.098-1.264c0-0.811-0.121-1.403-0.365-1.777
			c-0.244-0.375-0.631-0.563-1.162-0.563c-0.219,0-0.414,0.021-0.586,0.066c-0.174,0.044-0.336,0.122-0.49,0.232
			c-0.092,0.067-0.17,0.168-0.229,0.305c-0.061,0.137-0.111,0.295-0.152,0.475c-0.041,0.181-0.07,0.379-0.086,0.596
			C120.318,85.119,120.311,85.338,120.311,85.56z"/>
		<path fill="#804B1F" d="M129.707,86.626c0,0.283-0.047,0.526-0.143,0.729c-0.096,0.203-0.225,0.383-0.383,0.538
			c-0.088,0.083-0.184,0.164-0.287,0.241c-0.104,0.078-0.223,0.146-0.354,0.205c-0.131,0.058-0.279,0.104-0.443,0.137
			s-0.348,0.051-0.551,0.051c-0.371,0-0.711-0.042-1.018-0.125c-0.307-0.084-0.596-0.217-0.863-0.4l0.328-0.775
			c0.121,0.078,0.25,0.154,0.387,0.229s0.281,0.145,0.432,0.208c0.15,0.064,0.305,0.115,0.463,0.154
			c0.16,0.039,0.324,0.059,0.494,0.059c0.186,0,0.344-0.014,0.477-0.041c0.131-0.028,0.242-0.076,0.336-0.143
			c0.088-0.061,0.158-0.148,0.213-0.262c0.055-0.114,0.082-0.279,0.082-0.496c0-0.194-0.072-0.353-0.221-0.475
			c-0.148-0.123-0.332-0.229-0.555-0.316c-0.221-0.09-0.463-0.178-0.723-0.268c-0.26-0.088-0.502-0.199-0.723-0.333
			c-0.223-0.134-0.406-0.302-0.555-0.504s-0.223-0.466-0.223-0.787c0-0.239,0.051-0.442,0.148-0.612
			c0.1-0.17,0.223-0.326,0.369-0.471c0.188-0.178,0.404-0.318,0.65-0.421s0.518-0.154,0.813-0.154c0.236,0,0.482,0.015,0.744,0.046
			c0.26,0.03,0.508,0.065,0.742,0.104l-0.164,0.825c-0.109-0.027-0.23-0.056-0.361-0.083s-0.268-0.053-0.406-0.075
			c-0.141-0.022-0.273-0.04-0.402-0.054s-0.242-0.021-0.342-0.021c-0.219,0-0.389,0.013-0.508,0.037
			c-0.121,0.025-0.215,0.063-0.279,0.113c-0.061,0.045-0.105,0.107-0.137,0.188c-0.029,0.08-0.045,0.188-0.045,0.32
			c0,0.178,0.074,0.322,0.223,0.434c0.146,0.111,0.334,0.211,0.559,0.3c0.223,0.089,0.465,0.179,0.723,0.271
			c0.256,0.092,0.498,0.206,0.723,0.342c0.225,0.137,0.41,0.306,0.559,0.508C129.633,86.05,129.707,86.31,129.707,86.626z"/>
		<path fill="#804B1F" d="M132.295,83.203c0.115-0.084,0.232-0.161,0.354-0.233s0.246-0.136,0.377-0.192
			c0.133-0.055,0.271-0.1,0.42-0.133s0.309-0.05,0.484-0.05c0.307,0,0.602,0.05,0.887,0.149c0.285,0.101,0.537,0.262,0.756,0.484
			c0.219,0.222,0.395,0.512,0.525,0.87c0.133,0.358,0.197,0.793,0.197,1.304c0,0.494-0.064,0.935-0.193,1.32
			c-0.129,0.387-0.314,0.713-0.559,0.979c-0.242,0.267-0.539,0.471-0.887,0.612s-0.74,0.213-1.178,0.213
			c-0.209,0-0.414-0.021-0.617-0.063c-0.201-0.042-0.391-0.088-0.566-0.139c0,0.028,0.002,0.072,0.004,0.134
			c0.004,0.062,0.004,0.13,0.004,0.204c0,0.075,0.002,0.152,0.004,0.233c0.004,0.081,0.006,0.154,0.006,0.221v2.941l-1.109,0.267
			v-9.439l0.977-0.25L132.295,83.203z M135.121,85.468c0-0.377-0.037-0.699-0.111-0.967c-0.074-0.266-0.18-0.485-0.316-0.658
			c-0.137-0.172-0.301-0.297-0.492-0.374c-0.191-0.078-0.402-0.116-0.633-0.116s-0.447,0.023-0.652,0.07s-0.408,0.112-0.604,0.195
			v4.199c0.174,0.028,0.342,0.049,0.504,0.063s0.336,0.021,0.521,0.021c0.264,0,0.506-0.022,0.727-0.066
			c0.223-0.045,0.395-0.117,0.514-0.217c0.061-0.057,0.123-0.143,0.186-0.259s0.121-0.265,0.176-0.446
			c0.055-0.18,0.1-0.391,0.133-0.633C135.104,86.04,135.121,85.769,135.121,85.468z"/>
		<path fill="#804B1F" d="M138.488,79.794l0.756,0.759l-0.756,0.758l-0.748-0.758L138.488,79.794z M137.945,88.417v-5.698h1.109
			v5.698H137.945z"/>
		<path fill="#804B1F" d="M141.059,83.335l-0.633-0.059v-0.324l1.488-1.233h0.221l0.025,1h1.535l-0.074,0.509
			c-0.137,0.016-0.287,0.031-0.455,0.045s-0.324,0.027-0.473,0.037c-0.176,0.018-0.35,0.028-0.525,0.034v3.708
			c0,0.205,0.037,0.375,0.111,0.512s0.234,0.204,0.48,0.204c0.131,0,0.289-0.003,0.477-0.009c0.186-0.005,0.355-0.014,0.51-0.024
			v0.392c-0.084,0.039-0.189,0.08-0.316,0.125c-0.129,0.045-0.271,0.088-0.424,0.129c-0.152,0.042-0.307,0.076-0.459,0.104
			c-0.154,0.027-0.297,0.042-0.428,0.042c-0.121,0-0.244-0.016-0.369-0.047c-0.127-0.03-0.24-0.087-0.342-0.17
			c-0.102-0.084-0.186-0.201-0.25-0.354c-0.066-0.153-0.1-0.351-0.1-0.596V83.335z"/>
		<path fill="#804B1F" d="M149.232,87.827c0.148,0,0.342-0.034,0.584-0.101v0.358c-0.176,0.095-0.367,0.187-0.576,0.275
			c-0.207,0.089-0.428,0.134-0.656,0.134c-0.133,0-0.244-0.021-0.338-0.063c-0.092-0.043-0.17-0.098-0.229-0.168
			c-0.061-0.068-0.111-0.145-0.148-0.229c-0.039-0.084-0.072-0.166-0.1-0.25c-0.143,0.095-0.279,0.186-0.41,0.275
			c-0.131,0.088-0.27,0.168-0.414,0.237c-0.146,0.069-0.301,0.125-0.465,0.167c-0.164,0.041-0.348,0.063-0.551,0.063
			c-0.459,0-0.822-0.13-1.088-0.389c-0.266-0.258-0.398-0.648-0.398-1.17c0-0.277,0.039-0.521,0.119-0.729
			c0.08-0.209,0.207-0.384,0.383-0.525c0.174-0.142,0.402-0.248,0.682-0.32s0.621-0.114,1.025-0.125l1.012-0.033v-1.009
			c0-0.316-0.064-0.548-0.189-0.695c-0.127-0.147-0.336-0.222-0.633-0.222c-0.213,0-0.473,0.041-0.779,0.121
			c-0.307,0.081-0.609,0.186-0.904,0.313l-0.197-0.533c0.176-0.072,0.359-0.146,0.555-0.221c0.193-0.074,0.393-0.142,0.596-0.199
			c0.203-0.059,0.408-0.105,0.615-0.143c0.209-0.035,0.414-0.054,0.617-0.054c0.225,0,0.426,0.024,0.604,0.075
			c0.178,0.05,0.328,0.135,0.451,0.254s0.217,0.277,0.279,0.475s0.094,0.44,0.094,0.729v2.724
			C148.771,87.501,148.926,87.827,149.232,87.827z M147.697,87.402c0-0.027-0.006-0.188-0.018-0.479s-0.016-0.704-0.016-1.237
			c-0.598,0-1.049,0.039-1.355,0.117s-0.496,0.155-0.566,0.232c-0.066,0.072-0.115,0.176-0.145,0.309s-0.045,0.289-0.045,0.467
			c0,0.316,0.053,0.56,0.16,0.729c0.107,0.17,0.285,0.254,0.537,0.254c0.27,0,0.516-0.029,0.74-0.091S147.449,87.541,147.697,87.402
			z"/>
		<path fill="#804B1F" d="M150.898,88.417V79.07l1.109-0.283v9.631H150.898z"/>
		<path fill="#804B1F" d="M154.555,79.794l0.756,0.759l-0.756,0.758l-0.748-0.758L154.555,79.794z M154.012,88.417v-5.698h1.109
			v5.698H154.012z"/>
		<path fill="#804B1F" d="M157.125,83.335l-0.633-0.059v-0.324l1.488-1.233h0.221l0.025,1h1.535l-0.074,0.509
			c-0.137,0.016-0.287,0.031-0.455,0.045s-0.324,0.027-0.473,0.037c-0.176,0.018-0.35,0.028-0.525,0.034v3.708
			c0,0.205,0.037,0.375,0.111,0.512s0.234,0.204,0.48,0.204c0.131,0,0.289-0.003,0.477-0.009c0.186-0.005,0.355-0.014,0.51-0.024
			v0.392c-0.084,0.039-0.189,0.08-0.316,0.125c-0.129,0.045-0.271,0.088-0.424,0.129c-0.152,0.042-0.307,0.076-0.459,0.104
			c-0.154,0.027-0.297,0.042-0.428,0.042c-0.121,0-0.244-0.016-0.369-0.047c-0.127-0.03-0.24-0.087-0.342-0.17
			c-0.102-0.084-0.186-0.201-0.25-0.354c-0.066-0.153-0.1-0.351-0.1-0.596V83.335z"/>
		<path fill="#804B1F" d="M164.672,83.619c0-0.077-0.004-0.159-0.012-0.246c-0.01-0.086-0.02-0.166-0.033-0.24
			c-0.014-0.076-0.029-0.143-0.045-0.201c-0.018-0.058-0.031-0.104-0.041-0.137l0.953-0.225c0.043,0.094,0.074,0.215,0.094,0.361
			c0.02,0.148,0.029,0.299,0.029,0.455c0,0.332-0.051,0.709-0.152,1.129c-0.102,0.419-0.238,0.851-0.406,1.295
			c-0.17,0.444-0.367,0.892-0.592,1.342c-0.225,0.449-0.457,0.871-0.699,1.266c-0.17,0.272-0.348,0.557-0.533,0.854
			c-0.186,0.297-0.381,0.59-0.584,0.879c-0.201,0.288-0.412,0.563-0.631,0.825c-0.221,0.261-0.445,0.491-0.678,0.691
			c-0.234,0.199-0.473,0.357-0.719,0.475c-0.248,0.117-0.498,0.175-0.756,0.175c-0.16,0-0.297-0.017-0.412-0.05
			c-0.113-0.033-0.215-0.08-0.303-0.142v-0.358c0.049,0.012,0.105,0.021,0.168,0.029s0.119,0.013,0.168,0.013
			c0.164,0,0.348-0.052,0.551-0.154s0.414-0.239,0.637-0.408s0.445-0.364,0.67-0.583c0.225-0.22,0.439-0.449,0.645-0.688
			s0.395-0.477,0.57-0.713s0.324-0.457,0.443-0.662c-0.213-0.621-0.424-1.205-0.633-1.75c-0.207-0.544-0.402-1.035-0.582-1.475
			c-0.182-0.438-0.348-0.817-0.502-1.137c-0.152-0.319-0.281-0.564-0.385-0.737c-0.082-0.134-0.182-0.229-0.297-0.288
			c-0.115-0.058-0.227-0.087-0.336-0.087h-0.09v-0.342c0.092-0.027,0.221-0.057,0.385-0.087c0.164-0.031,0.326-0.047,0.484-0.047
			c0.143,0,0.281,0.019,0.416,0.055c0.133,0.036,0.242,0.107,0.324,0.213c0.119,0.15,0.254,0.382,0.402,0.695
			c0.148,0.314,0.303,0.678,0.465,1.092c0.16,0.414,0.326,0.861,0.496,1.342s0.334,0.961,0.492,1.445h0.025
			c0.203-0.361,0.369-0.713,0.5-1.055c0.133-0.342,0.234-0.674,0.309-0.995c0.074-0.322,0.125-0.635,0.152-0.938
			S164.672,83.908,164.672,83.619z"/>
	</g>
</g>
</svg>
